PathFileType	4	(X/Y/Z)	C:/Users/opensim2020/Desktop/walking_exp_matlab/subject02_walking09_straight_01.trc	
DataRate	CameraRate	NumFrames	NumMarkers	Units	OrigDataRate	OrigDataStartFrame	OrigNumFrames	
100.00	100.00	8	42	mm	100.00	562	293	
Frame#	Time	LFHD			RFHD			LBHD			RBHD			C7			T10			CLAV			STRN			RBAK			LSHO			LUPA			LELB			LFRM			LWRA			LWRB			LFIN			RSHO			RUPA			RELB			RFRM			RWRA			RWRB			RFIN			LASI			RASI			LPSI			RPSI			LTHI			LKNE			LTIB			LANK			LHEE			LTOE			RTHI			RKNE			RTIB			RANK			RHEE			RTOE			*39			*40			*41			
		X1	Y1	Z1	X2	Y2	Z2	X3	Y3	Z3	X4	Y4	Z4	X5	Y5	Z5	X6	Y6	Z6	X7	Y7	Z7	X8	Y8	Z8	X9	Y9	Z9	X10	Y10	Z10	X11	Y11	Z11	X12	Y12	Z12	X13	Y13	Z13	X14	Y14	Z14	X15	Y15	Z15	X16	Y16	Z16	X17	Y17	Z17	X18	Y18	Z18	X19	Y19	Z19	X20	Y20	Z20	X21	Y21	Z21	X22	Y22	Z22	X23	Y23	Z23	X24	Y24	Z24	X25	Y25	Z25	X26	Y26	Z26	X27	Y27	Z27	X28	Y28	Z28	X29	Y29	Z29	X30	Y30	Z30	X31	Y31	Z31	X32	Y32	Z32	X33	Y33	Z33	X34	Y34	Z34	X35	Y35	Z35	X36	Y36	Z36	X37	Y37	Z37	X38	Y38	Z38	X39	Y39	Z39	X40	Y40	Z40	X41	Y41	Z41	X42	Y42	Z42	

37	0.360	-1025.08350	-1050.62390	1756.73291	-880.68793	-1065.56055	1732.06543	-1050.56372	-1164.31018	1665.30969	-912.68408	-1194.18823	1637.00208	-973.93201	-1219.49768	1529.52661	-954.30078	-1281.61218	1259.72681	-992.92053	-1081.84131	1458.75061	-986.55530	-1036.12439	1283.54382	-899.67810	-1277.17871	1361.27100	-1156.97559	-1163.58008	1503.41138	-1235.70630	-1197.64551	1304.99634	-1248.22095	-1211.45276	1164.61633	-1264.02466	-1198.27893	1032.17090	-1241.11658	-1130.10803	912.33075	-1266.42761	-1180.59741	909.60999	-1272.04932	-1154.48633	847.46753	-794.72699	-1127.42065	1496.78442	-698.39862	-1147.17590	1312.01538	-678.23016	-1129.54163	1165.89441	-660.13300	-1093.76331	1051.24841	-684.41046	-1041.15723	926.46222	-644.79370	-1083.13550	921.55579	-645.66760	-1041.46399	861.69788	-1102.59998	-1082.41382	990.19226	-848.90576	-1057.59338	975.79279	-1004.13464	-1280.57153	1040.91687	-888.94647	-1273.85754	1041.09460	-1173.17188	-1099.43091	685.36835	-1153.34900	-1081.64001	496.13855	-1134.00830	-1203.96631	356.16699	-1096.14099	-1291.18713	153.23691	-1035.60742	-1319.61719	137.84743	-1141.09619	-1180.92920	55.84565	-793.20026	-1135.57898	667.31525	-844.91852	-1144.59900	459.04727	-843.58844	-1188.77917	274.96146	-891.10986	-1214.50122	84.97473	-946.35345	-1254.60278	32.60860	-888.90149	-1061.49731	32.24956	-944.60156	-1168.40662	1803.40674						 
38	0.370	-1025.36194	-1044.46838	1757.22034	-880.70142	-1059.14575	1732.76782	-1050.49792	-1157.79675	1665.34338	-912.58130	-1187.47534	1637.20544	-973.55695	-1212.65405	1529.79199	-953.67059	-1274.52515	1259.97083	-992.51746	-1074.91052	1459.07178	-985.56763	-1028.99158	1283.89355	-898.97595	-1270.66431	1361.92310	-1156.48828	-1157.15833	1503.38281	-1235.34534	-1192.35291	1305.20886	-1248.27759	-1207.02344	1164.94141	-1264.58386	-1195.22534	1032.40332	-1242.43469	-1128.04468	911.61053	-1267.87231	-1178.73901	909.76471	-1272.96436	-1153.45056	847.23364	-794.49255	-1120.33936	1497.46326	-697.65442	-1138.62146	1312.68469	-677.20160	-1119.08179	1166.72156	-660.13843	-1080.31763	1052.24927	-683.72424	-1026.71802	928.68317	-644.18506	-1068.67529	923.14124	-645.23474	-1025.91479	863.97180	-1101.57300	-1074.22241	991.22473	-847.67731	-1050.92017	975.27307	-1004.09082	-1273.10608	1041.25610	-888.68970	-1267.01746	1041.53369	-1173.09241	-1088.32605	687.13617	-1153.07336	-1068.87329	497.09476	-1134.86975	-1186.03369	351.61630	-1098.61426	-1264.58789	144.82854	-1038.23645	-1292.76379	127.88210	-1143.42944	-1149.71375	53.06968	-793.40796	-1131.65198	666.99762	-844.96552	-1142.62732	458.79007	-843.76086	-1187.80945	275.04068	-891.30011	-1214.34021	85.06515	-946.98486	-1253.68542	31.82047	-888.80359	-1061.71301	32.22480	-944.60205	-1162.19690	1803.32397	-3360.21655	2845.11914	1034.16248			 
39	0.380	-1025.50769	-1038.21118	1757.59204	-880.89990	-1052.76038	1733.37292	-1050.45044	-1151.30774	1665.23999	-912.51917	-1180.97095	1637.18762	-973.29651	-1205.71765	1529.93250	-953.13556	-1267.54297	1260.12976	-992.14960	-1067.82935	1459.21545	-984.70435	-1021.89954	1284.14551	-898.35089	-1263.15430	1362.14868	-1156.10938	-1150.53845	1503.10986	-1234.78113	-1186.97424	1305.27637	-1248.37463	-1202.64209	1165.23975	-1265.01538	-1192.20044	1032.64075	-1243.76282	-1126.11194	911.08319	-1268.63403	-1176.78943	909.52301	-1274.25342	-1152.35022	846.92407	-794.11719	-1113.34375	1498.07678	-696.94342	-1129.87488	1313.37561	-676.23425	-1108.64392	1167.45300	-659.09192	-1068.40686	1053.60205	-682.73267	-1012.19385	930.90460	-643.81805	-1054.19397	924.57800	-644.94604	-1010.39673	866.18445	-1100.83362	-1065.84265	992.02881	-846.98523	-1044.50037	974.45422	-1004.12323	-1265.68677	1041.45764	-888.87781	-1259.61914	1041.44019	-1173.03809	-1077.43665	688.74951	-1152.94116	-1056.57385	497.90802	-1135.87488	-1168.08130	346.83136	-1101.32849	-1237.40564	136.36313	-1041.17224	-1265.16956	117.79644	-1145.88965	-1118.03479	50.45203	-793.54913	-1127.76465	666.63953	-844.92493	-1140.84595	458.61871	-844.01727	-1186.78821	275.12439	-891.49274	-1214.39001	85.24005	-947.26880	-1253.90198	32.07303	-888.71155	-1061.73804	32.16639	-945.01105	-1156.21301	1803.66980	-3356.98584	2845.93604	1034.00330			 
40	0.390	-1025.51624	-1031.97998	1757.85876	-881.18091	-1046.30139	1733.93884	-1050.47278	-1144.74194	1665.00562	-912.41827	-1174.10059	1637.27734	-973.01068	-1198.71985	1529.99207	-952.72070	-1260.43628	1260.17493	-991.80408	-1060.82385	1459.31006	-983.88477	-1014.73236	1284.26404	-897.76257	-1256.05444	1362.19739	-1155.75464	-1143.70715	1502.68164	-1234.47327	-1181.61218	1305.22009	-1248.60669	-1198.43396	1165.69141	-1265.85535	-1189.16064	1032.76917	-1245.21680	-1124.17322	910.34839	-1269.94446	-1175.04712	909.58411	-1275.67834	-1151.26868	846.55988	-793.87305	-1106.51196	1498.61084	-696.35663	-1121.91870	1313.98962	-675.41156	-1098.16260	1168.16467	-658.38959	-1056.77124	1054.94702	-682.16455	-997.66357	933.42505	-643.52686	-1039.70435	926.03107	-644.85535	-994.86072	868.40668	-1100.14758	-1057.61621	992.52588	-845.86395	-1037.93481	973.77386	-1004.34479	-1258.19958	1041.54785	-888.88135	-1252.84802	1041.74670	-1173.15088	-1066.90857	690.13422	-1152.69556	-1044.77966	498.39093	-1137.14001	-1150.01746	341.77890	-1104.29651	-1209.66956	128.03325	-1044.54260	-1237.15088	108.25597	-1148.43677	-1086.01086	48.08303	-793.67139	-1123.87463	666.33240	-845.21027	-1138.80017	458.34415	-844.31610	-1185.88025	275.24911	-891.71844	-1214.28540	85.43740	-947.48260	-1254.20264	32.69806	-888.63177	-1061.78503	32.17153	-945.35101	-1150.01074	1803.74829	-3360.26099	2845.17798	1034.04541			 
41	0.400	-1026.20850	-1025.70715	1758.00061	-881.47278	-1039.93445	1734.32507	-1050.56494	-1138.13440	1664.62195	-912.38226	-1167.39673	1637.17957	-972.79974	-1191.65991	1529.94385	-952.36761	-1253.32349	1260.12634	-991.59369	-1053.66174	1459.29382	-983.08673	-1007.55548	1284.23645	-897.22559	-1249.02563	1362.52686	-1155.55920	-1136.61096	1502.03638	-1234.22559	-1176.20251	1305.15491	-1248.81006	-1194.02673	1165.93494	-1266.52625	-1186.08374	1032.96497	-1246.80298	-1122.29504	909.71735	-1271.52075	-1173.23779	909.60571	-1277.21631	-1150.32068	846.24866	-793.56635	-1099.30920	1499.01563	-695.98975	-1112.81555	1314.18188	-674.59113	-1087.71423	1168.74878	-658.46936	-1043.55200	1056.00500	-681.96362	-983.41418	935.63531	-643.37549	-1025.30359	927.53088	-644.75836	-979.68036	870.75970	-1099.62988	-1049.40198	992.86816	-844.91089	-1030.81311	973.26898	-1004.66290	-1250.64771	1041.58423	-889.38953	-1245.51196	1041.46094	-1173.09521	-1056.65881	691.41272	-1152.41553	-1033.43616	498.67990	-1138.80701	-1131.90039	336.63342	-1107.49133	-1181.47034	119.96846	-1048.05493	-1208.56116	98.95828	-1150.91968	-1053.75061	45.84671	-793.93152	-1119.93213	666.01361	-845.77484	-1136.21484	458.01709	-844.54456	-1184.95154	275.41577	-892.10321	-1214.32178	85.37265	-947.77301	-1254.39966	33.07872	-888.70007	-1061.74878	31.91842	-945.61591	-1143.95251	1803.23059	-3360.24414	2845.03882	1034.17456			 
42	0.410	-1026.82471	-1019.52850	1758.05750	-881.94543	-1033.41174	1734.68530	-1049.77808	-1130.69861	1663.48254	-912.47998	-1160.59570	1637.05347	-972.64349	-1184.53882	1529.75598	-952.09485	-1246.20923	1259.95715	-991.28278	-1046.52429	1459.08508	-982.45502	-1000.37518	1284.08850	-896.77661	-1241.95117	1362.49512	-1155.24377	-1129.95630	1501.50830	-1233.97693	-1170.61255	1304.84827	-1249.04150	-1189.40173	1165.89124	-1267.31091	-1182.75049	1032.91772	-1248.31860	-1120.45581	908.65027	-1272.82629	-1171.70837	909.78278	-1278.88098	-1149.39050	845.82141	-793.40448	-1092.42249	1499.30017	-695.94714	-1104.38708	1314.22498	-673.98767	-1077.04639	1169.25024	-657.31616	-1032.37317	1057.29321	-682.06958	-969.24011	937.78729	-643.30701	-1010.90985	928.94550	-644.87378	-964.05969	872.93799	-1099.22961	-1041.20227	992.99860	-844.14508	-1024.24487	972.58594	-1005.19586	-1243.03381	1041.40417	-889.73932	-1238.78503	1041.50269	-1173.25220	-1046.67883	692.31598	-1152.07739	-1022.52875	498.71951	-1140.77563	-1113.56348	331.39459	-1110.91248	-1152.81689	112.33322	-1051.97119	-1179.44702	90.07514	-1153.35938	-1021.53528	43.92362	-794.23993	-1116.29565	665.80121	-845.71082	-1134.49377	458.13297	-844.84039	-1183.94202	275.57996	-892.26184	-1214.01770	85.66338	-947.88684	-1254.70850	33.56519	-888.58038	-1061.82495	31.87806	-946.26685	-1137.81580	1802.92297	-3357.05688	2845.95703	1033.98181			 
43	0.420	-1027.11157	-1013.08069	1757.86133	-882.41498	-1026.90881	1734.93408	-1049.99243	-1123.95117	1662.78796	-912.65009	-1153.65576	1636.52893	-972.63556	-1177.19336	1529.30823	-951.98889	-1239.08069	1259.67749	-991.01563	-1039.33923	1458.66943	-981.89539	-993.10492	1283.76685	-896.41956	-1235.23364	1362.66711	-1155.03052	-1122.84387	1500.73914	-1233.80017	-1164.94287	1304.55371	-1249.26794	-1184.60596	1165.90308	-1268.18066	-1179.76135	1033.01538	-1250.08276	-1118.64697	908.01978	-1274.26318	-1170.02710	909.73407	-1280.64075	-1148.53345	845.48615	-793.27222	-1085.06360	1499.29565	-695.52252	-1096.08301	1314.31384	-673.39203	-1066.76465	1169.63293	-657.43475	-1019.28845	1058.34998	-682.34583	-954.77472	940.41791	-643.37793	-996.60162	930.32996	-645.07648	-948.73950	875.17871	-1099.02942	-1032.94250	992.95282	-843.70563	-1017.72302	971.72144	-1005.83813	-1235.40759	1041.14832	-890.42798	-1231.84717	1041.16406	-1173.54138	-1037.04285	693.01074	-1151.87988	-1011.97211	498.56671	-1142.87317	-1095.14685	326.36646	-1114.44922	-1123.96655	105.41124	-1055.51147	-1149.93665	82.24995	-1155.62366	-989.07855	42.58147	-794.60718	-1112.00964	665.34912	-846.01398	-1131.66516	457.72040	-845.20734	-1182.81165	275.68875	-892.65381	-1214.03711	85.64805	-948.25519	-1254.14026	33.26969	-888.44873	-1061.71509	31.78578	-947.06512	-1131.75549	1802.86401	-3357.02612	2845.81421	1033.99512			 
44	0.430	-1028.05029	-1006.80542	1757.67664	-883.01031	-1020.37372	1735.00317	-1050.29211	-1117.16028	1661.96008	-912.84326	-1146.75964	1636.03503	-972.58807	-1170.17188	1529.04358	-951.94965	-1231.91907	1259.32166	-991.42029	-1032.23462	1458.33240	-981.33563	-985.84918	1283.34985	-896.29077	-1227.75867	1362.27429	-1154.98438	-1115.66724	1499.80969	-1233.77637	-1159.06116	1304.10767	-1249.42615	-1179.44055	1165.53015	-1269.07031	-1176.33289	1032.96301	-1251.88562	-1116.82446	907.30609	-1275.84021	-1168.28101	909.70221	-1282.52051	-1147.73657	845.10132	-793.28223	-1078.04761	1499.44714	-695.42725	-1087.68188	1314.50171	-672.90289	-1056.59546	1170.16919	-656.98248	-1007.18787	1059.41309	-682.37720	-940.71991	942.62982	-643.54492	-982.34003	931.70892	-645.44250	-933.55231	877.36169	-1098.94080	-1024.69495	992.79706	-843.18921	-1010.80798	971.26440	-1006.63239	-1227.75439	1040.71582	-891.30487	-1224.71399	1040.50635	-1173.84875	-1027.72766	693.37408	-1151.75635	-1001.59125	498.26273	-1144.71753	-1076.69348	321.79385	-1118.01990	-1095.04187	99.18188	-1059.40552	-1120.53577	74.81571	-1158.06287	-956.97986	42.46718	-795.03900	-1107.96399	664.90070	-846.16626	-1129.65540	457.68488	-845.52637	-1181.62634	275.79980	-892.79828	-1213.72571	85.97266	-948.58661	-1253.54443	32.93402	-888.26917	-1061.96448	31.82345	-947.69208	-1125.36548	1802.36072	-3357.22534	2845.94336	1034.04346			 
